first trial
nRows=4
nColumns=165

# SIMM Motion File Header:
name first trial
datacolumns 165
datarows 4
otherdata 1
range 0.50000000 0.55000000
endheader
time	pelvis_tx	pelvis_ty	pelvis_tz	pelvis_tilt	pelvis_list	pelvis_rotation	hip_flexion_r	hip_adduction_r	hip_rotation_r	knee_angle_r	ankle_angle_r	subtalar_angle_r	mtp_angle_r	hip_flexion_l	hip_adduction_l	hip_rotation_l	knee_angle_l	ankle_angle_l	subtalar_angle_l	mtp_angle_l	lumbar_extension	lumbar_bending	lumbar_rotation	R.ASIS_tx	R.ASIS_ty	R.ASIS_tz	L.ASIS_tx	L.ASIS_ty	L.ASIS_tz	V.Sacral_tx	V.Sacral_ty	V.Sacral_tz	R.Thigh.Upper_tx	R.Thigh.Upper_ty	R.Thigh.Upper_tz	R.Thigh.Front_tx	R.Thigh.Front_ty	R.Thigh.Front_tz	R.Thigh.Rear_tx	R.Thigh.Rear_ty	R.Thigh.Rear_tz	L.Thigh.Upper_tx	L.Thigh.Upper_ty	L.Thigh.Upper_tz	L.Thigh.Front_tx	L.Thigh.Front_ty	L.Thigh.Front_tz	L.Thigh.Rear_tx	L.Thigh.Rear_ty	L.Thigh.Rear_tz	R.Shank.Upper_tx	R.Shank.Upper_ty	R.Shank.Upper_tz	R.Shank.Front_tx	R.Shank.Front_ty	R.Shank.Front_tz	R.Shank.Rear_tx	R.Shank.Rear_ty	R.Shank.Rear_tz	L.Shank.Upper_tx	L.Shank.Upper_ty	L.Shank.Upper_tz	L.Shank.Front_tx	L.Shank.Front_ty	L.Shank.Front_tz	L.Shank.Rear_tx	L.Shank.Rear_ty	L.Shank.Rear_tz	R.Heel_tx	R.Heel_ty	R.Heel_tz	R.Midfoot.Sup_tx	R.Midfoot.Sup_ty	R.Midfoot.Sup_tz	R.Midfoot.Lat_tx	R.Midfoot.Lat_ty	R.Midfoot.Lat_tz	R.Toe.Tip_tx	R.Toe.Tip_ty	R.Toe.Tip_tz	L.Heel_tx	L.Heel_ty	L.Heel_tz	L.Midfoot.Sup_tx	L.Midfoot.Sup_ty	L.Midfoot.Sup_tz	L.Midfoot.Lat_tx	L.Midfoot.Lat_ty	L.Midfoot.Lat_tz	L.Toe.Tip_tx	L.Toe.Tip_ty	L.Toe.Tip_tz	Sternum_tx	Sternum_ty	Sternum_tz	R.Acromium_tx	R.Acromium_ty	R.Acromium_tz	L.Acromium_tx	L.Acromium_ty	L.Acromium_tz	R.Bicep_tx	R.Bicep_ty	R.Bicep_tz	L.Bicep_tx	L.Bicep_ty	L.Bicep_tz	R.Elbow_tx	R.Elbow_ty	R.Elbow_tz	L.Elbow_tx	L.Elbow_ty	L.Elbow_tz	R.Wrist.Med_tx	R.Wrist.Med_ty	R.Wrist.Med_tz	R.Wrist.Lat_tx	R.Wrist.Lat_ty	R.Wrist.Lat_tz	L.Wrist.Med_tx	L.Wrist.Med_ty	L.Wrist.Med_tz	L.Wrist.Lat_tx	L.Wrist.Lat_ty	L.Wrist.Lat_tz	R.Toe.Lat_tx	R.Toe.Lat_ty	R.Toe.Lat_tz	R.Toe.Med_tx	R.Toe.Med_ty	R.Toe.Med_tz	L.Toe.Lat_tx	L.Toe.Lat_ty	L.Toe.Lat_tz	L.Toe.Med_tx	L.Toe.Med_ty	L.Toe.Med_tz	R.Temple_tx	R.Temple_ty	R.Temple_tz	L.Temple_tx	L.Temple_ty	L.Temple_tz	Top.Head_tx	Top.Head_ty	Top.Head_tz	ground_force_vx	ground_force_vy	ground_force_vz	ground_force_px	ground_force_py	ground_force_pz	ground_force_vx	ground_force_vy	ground_force_vz	ground_force_px	ground_force_py	ground_force_pz	ground_torque_x	ground_torque_y	ground_torque_z	ground_torque_x	ground_torque_y	ground_torque_z
      0.50000000	      0.58976635	      1.03304081	     -0.02156691	      4.83861358	      0.31232354	     -0.17195942	     19.22839159	     -4.28766184	    -10.32938526	    -19.86264556	      0.94375353	     -0.00035309	     -0.00000009	    -14.22473340	      3.42260454	     -2.38609918	     -3.29359199	      8.73322764	     -0.00000195	      0.00000032	    -17.05153620	     -2.15795426	     -5.90917994	      0.60728925	      1.07613330	      0.11012426	      0.61517627	      1.05539954	     -0.15069684	      0.41250906	      1.06724731	     -0.01534607	      0.66002826	      0.77078186	      0.17050006	      0.74122162	      0.73205316	      0.08292187	      0.69811859	      0.65593738	      0.17166190	      0.50436981	      0.76519128	     -0.19380721	      0.58952887	      0.71333563	     -0.13045895	      0.48194595	      0.65731561	     -0.17029904	      0.67613623	      0.48000430	      0.15979153	      0.76240851	      0.45290540	      0.11967175	      0.69873401	      0.39617511	      0.17208484	      0.41998792	      0.44748242	     -0.15937730	      0.46575790	      0.39150256	     -0.10995884	      0.39282343	      0.40830942	     -0.16410988	      0.67307800	      0.07849554	      0.08391925	      0.81684271	      0.10876972	      0.08170245	      0.79312683	      0.08423054	      0.18263785	      0.95268011	      0.09490895	      0.14851610	      0.27588315	      0.08774480	     -0.05981427	      0.44563388	      0.07726612	     -0.03354472	      0.42671628	      0.06593163	     -0.12879712	      0.55449011	      0.04622046	     -0.06146883	      0.64417847	      1.37157031	     -0.03278289	      0.53540088	      1.46977795	      0.16879329	      0.59453986	      1.48293323	     -0.24440395	      0.51063593	      1.27356335	      0.21846359	      0.63633771	      1.24855188	     -0.26464011	      0.44918381	      1.17961755	      0.24389465	      0.60638348	      1.14347229	     -0.30252939	      0.57035736	      0.93921783	      0.26211050	      0.52153516	      0.92890613	      0.30473032	      0.78582391	      0.98258997	     -0.22017924	      0.75212787	      0.94717932	     -0.27858286	      0.87790759	      0.06653928	      0.21376173	      0.90610687	      0.08765826	      0.10833647	      0.48536365	      0.03855096	     -0.13760669	      0.50471628	      0.04904999	     -0.03693923	      0.71728217	      1.59012439	      0.05102221	      0.73485840	      1.59323474	     -0.08670229	      0.73363196	      1.76656604	     -0.00915623	      0.00000000	      0.00000000	      0.00000000	      0.69913887	     -0.00750000	      0.10736799	     28.45568457	    663.19062033	     48.17109596	      0.47597045	     -0.00750000	     -0.09399192	      0.00000000	      0.00000000	      0.00000000	      0.00000000	      1.34667794	      0.00000000
      0.51700000	      0.58845698	      1.02949368	     -0.02078907	      4.68459791	      0.87622658	     -0.07747080	     18.74754612	     -4.34015119	     -9.79092485	    -13.63202069	      0.64982670	     -0.00026334	      0.00000068	    -15.43187495	      3.92809747	     -2.28868064	     -2.81518008	      9.24196828	      0.00000460	     -0.00000150	    -16.92760931	     -2.63187313	     -6.10943917	      0.60600983	      1.07212158	      0.11090735	      0.61345782	      1.05269775	     -0.15003427	      0.41148080	      1.06490735	     -0.01388082	      0.65350592	      0.76482556	      0.16986316	      0.73384766	      0.72436102	      0.08058566	      0.69069861	      0.64921143	      0.17040076	      0.49766788	      0.76432214	     -0.19353116	      0.58227136	      0.71100549	     -0.13084676	      0.47372876	      0.65662329	     -0.17009702	      0.67623877	      0.47213705	      0.15851988	      0.76493323	      0.45160989	      0.11869750	      0.70599634	      0.39063553	      0.17192935	      0.40661710	      0.44826266	     -0.15977640	      0.45090759	      0.39142267	     -0.11042699	      0.37893387	      0.40940762	     -0.16419041	      0.70999915	      0.06963823	      0.08775310	      0.84934930	      0.11342619	      0.08285662	      0.82989557	      0.08786561	      0.18455385	      0.98676404	      0.11337098	      0.14776392	      0.25758643	      0.08930142	     -0.05975680	      0.42699506	      0.07772550	     -0.03341606	      0.40806613	      0.06593500	     -0.12923410	      0.53550330	      0.04596268	     -0.06190777	      0.64295441	      1.36809949	     -0.03076240	      0.53465015	      1.46633069	      0.17080008	      0.59316357	      1.47998865	     -0.24262730	      0.51005484	      1.26996863	      0.22011667	      0.63495605	      1.24624683	     -0.26402667	      0.44873364	      1.17581604	      0.24528600	      0.60591479	      1.14046228	     -0.30220505	      0.57008160	      0.93556891	      0.26217343	      0.52179095	      0.92485168	      0.30577957	      0.78715540	      0.98316559	     -0.21933264	      0.75704126	      0.94704352	     -0.27839908	      0.91719196	      0.07841611	      0.21344109	      0.94077106	      0.10163078	      0.10820203	      0.46526724	      0.03815454	     -0.13787285	      0.48615381	      0.04880616	     -0.03739614	      0.71639178	      1.58645459	      0.05310259	      0.73404810	      1.59019543	     -0.08508916	      0.73394019	      1.76314355	     -0.00725531	      0.00000000	      0.00000000	      0.00000000	      0.71900947	     -0.00750000	      0.10683087	     40.06065769	    681.40023031	     50.40292284	      0.45763325	     -0.00750000	     -0.09427251	      0.00000000	      0.00000000	      0.00000000	      0.00000000	      0.86806086	      0.00000000
      0.53300000	      0.58742499	      1.02558250	     -0.02027519	      4.51453912	      1.44531092	      0.23540783	     18.26436380	     -4.53612938	     -8.90155188	     -8.04594543	      0.65884299	     -0.00016991	      0.00000008	    -16.52735215	      4.35659827	     -1.94497256	     -2.57021193	      9.85224336	      0.00000455	      0.00000049	    -16.75925299	     -3.03583391	     -6.25365544	      0.60616663	      1.06785522	      0.11183772	      0.61110046	      1.04963940	     -0.14970670	      0.41052548	      1.06226892	     -0.01277202	      0.64849469	      0.75868237	      0.16984746	      0.72554108	      0.71610077	      0.07839767	      0.68371326	      0.64216504	      0.16974637	      0.49144589	      0.76338281	     -0.19320232	      0.57538068	      0.70782355	     -0.13021501	      0.46586057	      0.65649847	     -0.17064574	      0.67586389	      0.46408911	      0.15901318	      0.76593719	      0.45069604	      0.11779874	      0.71350293	      0.38579184	      0.17228841	      0.39473865	      0.44827615	     -0.15930733	      0.43677896	      0.39054013	     -0.11111211	      0.36572635	      0.41050385	     -0.16435425	      0.74285431	      0.06388542	      0.09204451	      0.87719385	      0.11965545	      0.08321275	      0.86251630	      0.09387980	      0.18585760	      1.01546161	      0.13302934	      0.14508496	      0.23948900	      0.09085392	     -0.05981831	      0.40869083	      0.07842575	     -0.03323825	      0.39001547	      0.06617791	     -0.12995900	      0.51635767	      0.04564381	     -0.06234344	      0.64189569	      1.36488831	     -0.02931863	      0.53496466	      1.46209900	      0.17271561	      0.59147821	      1.47714319	     -0.24025862	      0.51040280	      1.26640588	      0.22183676	      0.63436365	      1.24333264	     -0.26247122	      0.44861310	      1.17167273	      0.24711967	      0.60376556	      1.13799829	     -0.30162094	      0.57037482	      0.93214624	      0.26287769	      0.52298077	      0.92095349	      0.30603964	      0.78802197	      0.98263965	     -0.21841202	      0.75847821	      0.94590601	     -0.27733041	      0.95087756	      0.09276676	      0.21210831	      0.97001178	      0.11691836	      0.10649748	      0.44575366	      0.03772970	     -0.13835434	      0.46768900	      0.04859190	     -0.03783012	      0.71562604	      1.58291943	      0.05487330	      0.73371307	      1.58680139	     -0.08315228	      0.73291882	      1.75986401	     -0.00475553	      0.00000000	      0.00000000	      0.00000000	      0.73642238	     -0.00750000	      0.10637086	     50.09914800	    701.35021743	     52.17625960	      0.43886696	     -0.00750000	     -0.09434886	      0.00000000	      0.00000000	      0.00000000	      0.00000000	      0.84795796	      0.00000000
      0.55000000	      0.58694597	      1.02159192	     -0.01937799	      4.41727715	      2.03384613	      0.15105301	     17.82857391	     -4.76582573	     -7.38359448	     -3.40190768	      0.88980311	     -0.00009684	      0.00000213	    -17.74606700	      4.90447281	     -1.93268176	     -2.32123128	     10.41165335	      0.00001967	     -0.00000079	    -16.62942059	     -3.45047690	     -6.28540772	      0.60610095	      1.06319690	      0.11281873	      0.61082269	      1.04728406	     -0.14852525	      0.40961292	      1.05932776	     -0.01207227	      0.64330994	      0.75217841	      0.16988080	      0.71885370	      0.70906995	      0.07686958	      0.67749908	      0.63530420	      0.16958067	      0.48582443	      0.76235632	     -0.19286098	      0.56961176	      0.70504395	     -0.13131596	      0.45822800	      0.65574005	     -0.17005191	      0.67623981	      0.45708301	      0.15951393	      0.76558667	      0.45027454	      0.11662414	      0.71768579	      0.38198962	      0.17258589	      0.38201459	      0.44855106	     -0.15943240	      0.42527179	      0.39041452	     -0.11207219	      0.35329285	      0.41156070	     -0.16452814	      0.76994409	      0.06051376	      0.09594810	      0.89952203	      0.12602965	      0.08282451	      0.88948267	      0.10070587	      0.18634698	      1.03799658	      0.15150447	      0.14119286	      0.22155753	      0.09253715	     -0.06006966	      0.39066571	      0.07908334	     -0.03356961	      0.37227844	      0.06648495	     -0.13084515	      0.49709875	      0.04531435	     -0.06273755	      0.64178833	      1.36078735	     -0.02655871	      0.53445099	      1.45753784	      0.17577332	      0.59060815	      1.47425403	     -0.23798682	      0.51027930	      1.26177295	      0.22409195	      0.63192273	      1.24074414	     -0.26099298	      0.44877402	      1.16723364	      0.24934280	      0.60253546	      1.13538562	     -0.30106085	      0.57200549	      0.92747113	      0.26375534	      0.52445618	      0.91677148	      0.30714743	      0.78674243	      0.98117828	     -0.21786545	      0.75896814	      0.94473584	     -0.27733487	      0.97945679	      0.10939651	      0.21104997	      0.99313544	      0.13147714	      0.10371878	      0.42692102	      0.03732714	     -0.13900964	      0.44919370	      0.04834481	     -0.03827318	      0.71496704	      1.57937439	      0.05783147	      0.73217340	      1.58346729	     -0.08048106	      0.72967273	      1.75524731	     -0.00254823	      0.00000000	      0.00000000	      0.00000000	      0.75322616	     -0.00750000	      0.10593641	     62.29640781	    724.03074514	     54.33041474	      0.41987190	     -0.00750000	     -0.09400169	      0.00000000	      0.00000000	      0.00000000	      0.00000000	      0.98272824	      0.00000000
